<svg width="14" height="15" viewBox="0 0 14 15" fill="none" xmlns="http://www.w3.org/2000/svg">
<path d="M3.08975 14.0834C2.67415 14.0834 2.31919 13.9362 2.02485 13.6419C1.73051 13.3475 1.58333 12.9926 1.58333 12.577V2.00009H0.75V0.750106H4.49998V0.0129395H9.49998V0.750106H13.25V2.00009H12.4166V12.577C12.4166 12.9979 12.2708 13.3542 11.9791 13.6459C11.6875 13.9376 11.3312 14.0834 10.9102 14.0834H3.08975ZM11.1666 2.00009H2.83331V12.577C2.83331 12.6518 2.85735 12.7132 2.90544 12.7613C2.95352 12.8094 3.01496 12.8334 3.08975 12.8334H10.9102C10.9743 12.8334 11.0331 12.8067 11.0865 12.7533C11.1399 12.6999 11.1666 12.6411 11.1666 12.577V2.00009ZM4.83654 11.1668H6.08652V3.66675H4.83654V11.1668ZM7.91344 11.1668H9.16342V3.66675H7.91344V11.1668Z" fill="#666666"/>
</svg>
