<svg width="16" height="15" viewBox="0 0 16 15" fill="none" xmlns="http://www.w3.org/2000/svg">
<path d="M2.16599 13.3332H3.21727L11.7477 4.80267L10.6965 3.7514L2.16599 12.2819V13.3332ZM0.916016 14.5831V11.7626L11.908 0.775483C12.034 0.661025 12.1732 0.57258 12.3254 0.51015C12.4777 0.447719 12.6374 0.416504 12.8045 0.416504C12.9715 0.416504 13.1334 0.446157 13.29 0.505463C13.4466 0.564754 13.5853 0.659032 13.706 0.788296L14.7237 1.81873C14.8529 1.93946 14.9451 2.07837 15.0001 2.23548C15.0551 2.39258 15.0826 2.54968 15.0826 2.70678C15.0826 2.87435 15.054 3.03426 14.9968 3.18652C14.9396 3.3388 14.8485 3.47795 14.7237 3.60396L3.7365 14.5831H0.916016ZM11.2129 4.28625L10.6965 3.7514L11.7477 4.80267L11.2129 4.28625Z" fill="#666666"/>
</svg>
