<svg width="31" height="20" viewBox="0 0 31 20" fill="none" xmlns="http://www.w3.org/2000/svg">
<path d="M16.1953 9.5057L11.8953 5.2057C11.7641 5.07441 11.586 5.00066 11.4003 5.00066C11.2147 5.00066 11.0366 5.07441 10.9053 5.2057C10.7741 5.33698 10.7003 5.51503 10.7003 5.7007C10.7003 5.88636 10.7741 6.06441 10.9053 6.1957L14.7103 10.0057L10.9103 13.8057C10.7791 13.937 10.7053 14.115 10.7053 14.3007C10.7053 14.4864 10.7791 14.6644 10.9103 14.7957C11.0416 14.927 11.2197 15.0007 11.4053 15.0007C11.591 15.0007 11.7691 14.927 11.9003 14.7957L16.1953 10.5057C16.2603 10.4407 16.3119 10.3635 16.3471 10.2786C16.3823 10.1937 16.4004 10.1026 16.4004 10.0107C16.4004 9.91877 16.3823 9.82773 16.3471 9.7428C16.3119 9.65787 16.2603 9.5807 16.1953 9.5157L16.1953 9.5057Z" fill="#72787F"/>
<path d="M19.8953 9.5057L15.5953 5.2057C15.464 5.07441 15.286 5.00066 15.1003 5.00066C14.9146 5.00066 14.7366 5.07441 14.6053 5.2057C14.474 5.33698 14.4003 5.51503 14.4003 5.7007C14.4003 5.88636 14.474 6.06441 14.6053 6.1957L18.4103 10.0057L14.6103 13.8057C14.479 13.937 14.4053 14.115 14.4053 14.3007C14.4053 14.4864 14.479 14.6644 14.6103 14.7957C14.7416 14.927 14.9196 15.0007 15.1053 15.0007C15.291 15.0007 15.469 14.927 15.6003 14.7957L19.8953 10.5057C19.9603 10.4407 20.0119 10.3635 20.0471 10.2786C20.0822 10.1937 20.1003 10.1026 20.1003 10.0107C20.1003 9.91877 20.0822 9.82773 20.0471 9.7428C20.0119 9.65787 19.9603 9.5807 19.8953 9.5157L19.8953 9.5057Z" fill="#72787F"/>
</svg>
