<svg width="14" height="13" viewBox="0 0 14 13" fill="none" xmlns="http://www.w3.org/2000/svg">
<path d="M7.03196 12.75C5.28717 12.75 3.80931 12.1446 2.59838 10.9339C1.38745 9.72324 0.781982 8.24568 0.781982 6.50125C0.781982 4.75682 1.38745 3.27884 2.59838 2.06731C3.80931 0.855771 5.28717 0.25 7.03196 0.25C8.00632 0.25 8.92833 0.466618 9.79798 0.899854C10.6676 1.33308 11.3909 1.94446 11.9678 2.734V0.25H13.2178V5.3461H8.12171V4.09615H11.4134C10.9743 3.29166 10.3653 2.65784 9.58644 2.19469C8.80759 1.73155 7.9561 1.49998 7.03196 1.49998C5.64307 1.49998 4.46252 1.98609 3.4903 2.95831C2.51807 3.93054 2.03196 5.11109 2.03196 6.49998C2.03196 7.88887 2.51807 9.06942 3.4903 10.0416C4.46252 11.0139 5.64307 11.5 7.03196 11.5C8.10141 11.5 9.06668 11.1944 9.9278 10.5833C10.7889 9.9722 11.3931 9.16665 11.7403 8.16665H13.0576C12.6794 9.52667 11.9344 10.6306 10.8228 11.4783C9.71116 12.3261 8.44755 12.75 7.03196 12.75Z" fill="#666666"/>
</svg>
