<svg width="36" height="37" viewBox="0 0 36 37" fill="none" xmlns="http://www.w3.org/2000/svg">
<rect y="0.5" width="36" height="36" rx="10" fill="#25B4AD"/>
<rect y="0.5" width="36" height="36" rx="10" fill="white" fill-opacity="0.8"/>
<mask id="mask0_309_5028" style="mask-type:alpha" maskUnits="userSpaceOnUse" x="8" y="8" width="20" height="21">
<rect x="8" y="8.5" width="20" height="20" fill="#D9D9D9"/>
</mask>
<g mask="url(#mask0_309_5028)">
<path d="M11.4759 22.9774C11.0368 22.3417 10.6949 21.6452 10.4503 20.8877C10.2056 20.1302 10.0833 19.3343 10.0833 18.4999C10.0833 17.6655 10.2034 16.8731 10.4438 16.1225C10.6842 15.372 11.0239 14.6789 11.463 14.0432L12.3669 14.9342C12.0378 15.446 11.7833 16.0018 11.6033 16.6017C11.4232 17.2016 11.3332 17.8343 11.3332 18.4999C11.3332 19.1655 11.4232 19.8017 11.6033 20.4085C11.7833 21.0154 12.0378 21.5747 12.3669 22.0864L11.4759 22.9774ZM17.9999 26.4165C17.1655 26.4165 16.3731 26.2964 15.6225 26.056C14.872 25.8156 14.1789 25.4759 13.5432 25.0368L14.4342 24.1329C14.946 24.462 15.5018 24.7165 16.1017 24.8965C16.7016 25.0766 17.3343 25.1666 17.9999 25.1666C18.6655 25.1666 19.2982 25.0766 19.8981 24.8965C20.498 24.7165 21.0538 24.462 21.5656 24.1329L22.4566 25.0368C21.8209 25.4759 21.1278 25.8156 20.3773 26.056C19.6267 26.2964 18.8343 26.4165 17.9999 26.4165ZM24.5239 22.9694L23.6329 22.0784C23.962 21.5667 24.2165 21.0087 24.3965 20.4045C24.5766 19.8004 24.6666 19.1655 24.6666 18.4999C24.6666 17.8343 24.5766 17.2016 24.3965 16.6017C24.2165 16.0018 23.962 15.446 23.6329 14.9342L24.5368 14.0432C24.9759 14.6789 25.3156 15.372 25.556 16.1225C25.7963 16.8731 25.9165 17.6655 25.9165 18.4999C25.9165 19.3343 25.7942 20.1289 25.5495 20.8837C25.3049 21.6385 24.963 22.3337 24.5239 22.9694ZM14.4214 12.8669L13.5304 11.9759C14.1661 11.5368 14.8613 11.1949 15.6161 10.9503C16.3709 10.7056 17.1655 10.5833 17.9999 10.5833C18.8428 10.5833 19.6409 10.7056 20.3941 10.9503C21.1473 11.1949 21.8417 11.5368 22.4774 11.9759L21.5864 12.8669C21.0747 12.5378 20.5154 12.2833 19.9085 12.1033C19.3017 11.9232 18.6655 11.8332 17.9999 11.8332C17.3343 11.8332 16.6994 11.9232 16.0953 12.1033C15.4911 12.2833 14.9331 12.5378 14.4214 12.8669ZM17.9999 22.4582C16.9059 22.4582 15.9727 22.072 15.2002 21.2996C14.4278 20.5271 14.0416 19.5939 14.0416 18.4999C14.0416 17.4059 14.4278 16.4727 15.2002 15.7002C15.9727 14.9278 16.9059 14.5416 17.9999 14.5416C19.0939 14.5416 20.0271 14.9278 20.7996 15.7002C21.572 16.4727 21.9582 17.4059 21.9582 18.4999C21.9582 19.5939 21.572 20.5271 20.7996 21.2996C20.0271 22.072 19.0939 22.4582 17.9999 22.4582Z" fill="#25B4AD"/>
</g>
</svg>
