<svg width="18" height="19" viewBox="0 0 18 19" fill="none" xmlns="http://www.w3.org/2000/svg">
<mask id="mask0_253_3354" style="mask-type:alpha" maskUnits="userSpaceOnUse" x="0" y="0" width="18" height="19">
<rect y="0.5" width="18" height="18" fill="#D9D9D9"/>
</mask>
<g mask="url(#mask0_253_3354)">
<path d="M6.75 15.5C6.3375 15.5 5.98438 15.3531 5.69063 15.0594C5.39688 14.7656 5.25 14.4125 5.25 14C5.25 13.5875 5.39688 13.2344 5.69063 12.9406C5.98438 12.6469 6.3375 12.5 6.75 12.5C7.1625 12.5 7.51562 12.6469 7.80938 12.9406C8.10313 13.2344 8.25 13.5875 8.25 14C8.25 14.4125 8.10313 14.7656 7.80938 15.0594C7.51562 15.3531 7.1625 15.5 6.75 15.5ZM11.25 15.5C10.8375 15.5 10.4844 15.3531 10.1906 15.0594C9.89687 14.7656 9.75 14.4125 9.75 14C9.75 13.5875 9.89687 13.2344 10.1906 12.9406C10.4844 12.6469 10.8375 12.5 11.25 12.5C11.6625 12.5 12.0156 12.6469 12.3094 12.9406C12.6031 13.2344 12.75 13.5875 12.75 14C12.75 14.4125 12.6031 14.7656 12.3094 15.0594C12.0156 15.3531 11.6625 15.5 11.25 15.5ZM6.75 11C6.3375 11 5.98438 10.8531 5.69063 10.5594C5.39688 10.2656 5.25 9.9125 5.25 9.5C5.25 9.0875 5.39688 8.73438 5.69063 8.44063C5.98438 8.14687 6.3375 8 6.75 8C7.1625 8 7.51562 8.14687 7.80938 8.44063C8.10313 8.73438 8.25 9.0875 8.25 9.5C8.25 9.9125 8.10313 10.2656 7.80938 10.5594C7.51562 10.8531 7.1625 11 6.75 11ZM11.25 11C10.8375 11 10.4844 10.8531 10.1906 10.5594C9.89687 10.2656 9.75 9.9125 9.75 9.5C9.75 9.0875 9.89687 8.73438 10.1906 8.44063C10.4844 8.14687 10.8375 8 11.25 8C11.6625 8 12.0156 8.14687 12.3094 8.44063C12.6031 8.73438 12.75 9.0875 12.75 9.5C12.75 9.9125 12.6031 10.2656 12.3094 10.5594C12.0156 10.8531 11.6625 11 11.25 11ZM6.75 6.5C6.3375 6.5 5.98438 6.35313 5.69063 6.05938C5.39688 5.76562 5.25 5.4125 5.25 5C5.25 4.5875 5.39688 4.23438 5.69063 3.94063C5.98438 3.64688 6.3375 3.5 6.75 3.5C7.1625 3.5 7.51562 3.64688 7.80938 3.94063C8.10313 4.23438 8.25 4.5875 8.25 5C8.25 5.4125 8.10313 5.76562 7.80938 6.05938C7.51562 6.35313 7.1625 6.5 6.75 6.5ZM11.25 6.5C10.8375 6.5 10.4844 6.35313 10.1906 6.05938C9.89687 5.76562 9.75 5.4125 9.75 5C9.75 4.5875 9.89687 4.23438 10.1906 3.94063C10.4844 3.64688 10.8375 3.5 11.25 3.5C11.6625 3.5 12.0156 3.64688 12.3094 3.94063C12.6031 4.23438 12.75 4.5875 12.75 5C12.75 5.4125 12.6031 5.76562 12.3094 6.05938C12.0156 6.35313 11.6625 6.5 11.25 6.5Z" fill="#D1D1D1"/>
</g>
</svg>
