<svg width="20" height="21" viewBox="0 0 20 21" fill="none" xmlns="http://www.w3.org/2000/svg">
<mask id="mask0_253_3476" style="mask-type:alpha" maskUnits="userSpaceOnUse" x="0" y="0" width="20" height="21">
<rect y="0.5" width="20" height="20" fill="#D9D9D9"/>
</mask>
<g mask="url(#mask0_253_3476)">
<path d="M17.0834 6.50944V16.0767C17.0834 16.4977 16.9375 16.854 16.6459 17.1456C16.3542 17.4373 15.9979 17.5831 15.577 17.5831H4.42316C4.00222 17.5831 3.64591 17.4373 3.35425 17.1456C3.06258 16.854 2.91675 16.4977 2.91675 16.0767V4.92292C2.91675 4.50198 3.06258 4.14567 3.35425 3.854C3.64591 3.56234 4.00222 3.4165 4.42316 3.4165H13.9904L17.0834 6.50944ZM15.8334 7.04148L13.4584 4.66648H4.42316C4.34837 4.66648 4.28694 4.69052 4.23885 4.73861C4.19077 4.78669 4.16673 4.84813 4.16673 4.92292V16.0767C4.16673 16.1515 4.19077 16.2129 4.23885 16.261C4.28694 16.3091 4.34837 16.3331 4.42316 16.3331H15.577C15.6517 16.3331 15.7132 16.3091 15.7613 16.261C15.8094 16.2129 15.8334 16.1515 15.8334 16.0767V7.04148ZM10.0001 14.8908C10.577 14.8908 11.0684 14.6878 11.4744 14.2818C11.8804 13.8759 12.0834 13.3844 12.0834 12.8075C12.0834 12.2306 11.8804 11.7391 11.4744 11.3331C11.0684 10.9272 10.577 10.7242 10.0001 10.7242C9.42314 10.7242 8.9317 10.9272 8.52573 11.3331C8.11974 11.7391 7.91675 12.2306 7.91675 12.8075C7.91675 13.3844 8.11974 13.8759 8.52573 14.2818C8.9317 14.6878 9.42314 14.8908 10.0001 14.8908ZM5.3206 8.73698H12.1635V5.82036H5.3206V8.73698Z" fill="#666666"/>
</g>
</svg>
