<svg width="37" height="37" viewBox="0 0 37 37" fill="none" xmlns="http://www.w3.org/2000/svg">
<rect x="0.333252" y="0.5" width="36" height="36" rx="10" fill="#597EFF"/>
<rect x="0.333252" y="0.5" width="36" height="36" rx="10" fill="white" fill-opacity="0.8"/>
<mask id="mask0_309_5029" style="mask-type:alpha" maskUnits="userSpaceOnUse" x="8" y="8" width="21" height="21">
<rect x="8.33325" y="8.5" width="20" height="20" fill="#D9D9D9"/>
</mask>
<g mask="url(#mask0_309_5029)">
<path d="M26.3333 27.6666L24.0833 25.4166C23.7777 25.5971 23.4583 25.7395 23.1249 25.8437C22.7916 25.9478 22.4444 25.9999 22.0833 25.9999C21.0416 25.9999 20.1562 25.6353 19.427 24.9062C18.6978 24.177 18.3333 23.2916 18.3333 22.2499C18.3333 21.2083 18.6978 20.3228 19.427 19.5937C20.1562 18.8645 21.0416 18.4999 22.0833 18.4999C23.1249 18.4999 24.0103 18.8645 24.7395 19.5937C25.4687 20.3228 25.8333 21.2083 25.8333 22.2499C25.8333 22.611 25.7812 22.9583 25.677 23.2916C25.5728 23.6249 25.4305 23.9444 25.2499 24.2499L27.4999 26.4999L26.3333 27.6666ZM22.0833 24.3333C22.6666 24.3333 23.1596 24.1319 23.5624 23.7291C23.9652 23.3263 24.1666 22.8333 24.1666 22.2499C24.1666 21.6666 23.9652 21.1735 23.5624 20.7708C23.1596 20.368 22.6666 20.1666 22.0833 20.1666C21.4999 20.1666 21.0069 20.368 20.6041 20.7708C20.2013 21.1735 19.9999 21.6666 19.9999 22.2499C19.9999 22.8333 20.2013 23.3263 20.6041 23.7291C21.0069 24.1319 21.4999 24.3333 22.0833 24.3333ZM25.8333 16.8333H24.1666V12.6666H22.4999V15.1666H14.1666V12.6666H12.4999V24.3333H16.6666V25.9999H12.4999C12.0416 25.9999 11.6492 25.8367 11.3228 25.5103C10.9964 25.1839 10.8333 24.7916 10.8333 24.3333V12.6666C10.8333 12.2083 10.9964 11.8159 11.3228 11.4895C11.6492 11.1631 12.0416 10.9999 12.4999 10.9999H15.9791C16.1319 10.5138 16.4305 10.1145 16.8749 9.802C17.3194 9.4895 17.8055 9.33325 18.3333 9.33325C18.8888 9.33325 19.3853 9.4895 19.8228 9.802C20.2603 10.1145 20.5555 10.5138 20.7083 10.9999H24.1666C24.6249 10.9999 25.0173 11.1631 25.3437 11.4895C25.6701 11.8159 25.8333 12.2083 25.8333 12.6666V16.8333ZM18.3333 12.6666C18.5694 12.6666 18.7673 12.5867 18.927 12.427C19.0867 12.2673 19.1666 12.0694 19.1666 11.8333C19.1666 11.5971 19.0867 11.3992 18.927 11.2395C18.7673 11.0798 18.5694 10.9999 18.3333 10.9999C18.0971 10.9999 17.8992 11.0798 17.7395 11.2395C17.5798 11.3992 17.4999 11.5971 17.4999 11.8333C17.4999 12.0694 17.5798 12.2673 17.7395 12.427C17.8992 12.5867 18.0971 12.6666 18.3333 12.6666Z" fill="#597EFF"/>
</g>
</svg>
