<svg width="26" height="20" viewBox="0 0 26 20" fill="none" xmlns="http://www.w3.org/2000/svg">
<path d="M10.5049 10.4958L14.8049 14.7958C14.9361 14.9271 15.1142 15.0008 15.2999 15.0008C15.4855 15.0008 15.6636 14.9271 15.7949 14.7958C15.9261 14.6645 15.9999 14.4864 15.9999 14.3008C15.9999 14.1151 15.9261 13.9371 15.7949 13.8058L11.9899 9.99577L15.7899 6.19577C15.9211 6.06449 15.9949 5.88643 15.9949 5.70077C15.9949 5.51511 15.9211 5.33705 15.7899 5.20577C15.6586 5.07449 15.4805 5.00073 15.2949 5.00073C15.1092 5.00073 14.9311 5.07449 14.7999 5.20577L10.5049 9.49577C10.4398 9.56077 10.3883 9.63794 10.3531 9.72287C10.3179 9.80781 10.2998 9.89884 10.2998 9.99077C10.2998 10.0827 10.3179 10.1737 10.3531 10.2587C10.3883 10.3436 10.4398 10.4208 10.5049 10.4858V10.4958Z" fill="#72787F"/>
</svg>
