<svg width="26" height="20" viewBox="0 0 26 20" fill="none" xmlns="http://www.w3.org/2000/svg">
<path d="M15.4951 9.5057L11.1951 5.2057C11.0639 5.07441 10.8858 5.00066 10.7001 5.00066C10.5145 5.00066 10.3364 5.07441 10.2051 5.2057C10.0739 5.33698 10.0001 5.51503 10.0001 5.7007C10.0001 5.88636 10.0739 6.06441 10.2051 6.1957L14.0101 10.0057L10.2101 13.8057C10.0789 13.937 10.0051 14.115 10.0051 14.3007C10.0051 14.4864 10.0789 14.6644 10.2101 14.7957C10.3414 14.927 10.5195 15.0007 10.7051 15.0007C10.8908 15.0007 11.0689 14.927 11.2001 14.7957L15.4951 10.5057C15.5602 10.4407 15.6117 10.3635 15.6469 10.2786C15.6821 10.1937 15.7002 10.1026 15.7002 10.0107C15.7002 9.91877 15.6821 9.82773 15.6469 9.7428C15.6117 9.65787 15.5602 9.5807 15.4951 9.5157L15.4951 9.5057Z" fill="#72787F"/>
</svg>
