<svg width="37" height="37" viewBox="0 0 37 37" fill="none" xmlns="http://www.w3.org/2000/svg">
<rect x="0.666504" y="0.5" width="36" height="36" rx="10" fill="#FF7A00"/>
<rect x="0.666504" y="0.5" width="36" height="36" rx="10" fill="white" fill-opacity="0.8"/>
<mask id="mask0_309_5033" style="mask-type:alpha" maskUnits="userSpaceOnUse" x="8" y="8" width="21" height="21">
<rect x="8.6665" y="8.5" width="20" height="20" fill="#D9D9D9"/>
</mask>
<g mask="url(#mask0_309_5033)">
<path d="M16.1665 16.0001V14.3334H23.6665V16.0001H16.1665ZM16.1665 18.5001V16.8334H23.6665V18.5001H16.1665ZM20.3332 26.8334V24.2709L24.9373 19.6876C25.0623 19.5626 25.2012 19.4723 25.354 19.4167C25.5068 19.3612 25.6596 19.3334 25.8123 19.3334C25.979 19.3334 26.1387 19.3647 26.2915 19.4272C26.4443 19.4897 26.5832 19.5834 26.7082 19.7084L27.479 20.4792C27.5901 20.6042 27.6769 20.7431 27.7394 20.8959C27.8019 21.0487 27.8332 21.2015 27.8332 21.3542C27.8332 21.507 27.8054 21.6633 27.7498 21.823C27.6943 21.9827 27.604 22.1251 27.479 22.2501L22.8957 26.8334H20.3332ZM25.8123 22.1667L26.5832 21.3542L25.8123 20.5834L25.0207 21.3751L25.8123 22.1667ZM13.6665 26.8334C12.9721 26.8334 12.3818 26.5904 11.8957 26.1042C11.4096 25.6181 11.1665 25.0279 11.1665 24.3334V21.8334H13.6665V10.1667H26.1665V17.6876C25.8887 17.6598 25.6075 17.6702 25.3228 17.7188C25.038 17.7674 24.7637 17.8542 24.4998 17.9792V11.8334H15.3332V21.8334H20.3332L18.6665 23.5001V26.8334H13.6665Z" fill="#FF7A00"/>
</g>
</svg>
