<svg width="14" height="15" viewBox="0 0 14 15" fill="none" xmlns="http://www.w3.org/2000/svg">
<path d="M6.375 10.5457H7.62496V6.86296L9.16665 8.37901L10.0448 7.50082L6.99998 4.45596L3.95512 7.50082L4.83331 8.37901L6.375 6.86296V10.5457ZM3.08975 14.5841C2.66881 14.5841 2.3125 14.4383 2.02083 14.1466C1.72917 13.855 1.58333 13.4987 1.58333 13.0777V2.50082H0.75V1.25084H4.49998V0.513672H9.49998V1.25084H13.25V2.50082H12.4166V13.0777C12.4166 13.4987 12.2708 13.855 11.9791 14.1466C11.6875 14.4383 11.3312 14.5841 10.9102 14.5841H3.08975ZM11.1666 2.50082H2.83331V13.0777C2.83331 13.1418 2.86002 13.2006 2.91344 13.254C2.96687 13.3074 3.02564 13.3342 3.08975 13.3342H10.9102C10.9743 13.3342 11.0331 13.3074 11.0865 13.254C11.1399 13.2006 11.1666 13.1418 11.1666 13.0777V2.50082Z" fill="#25B4AD"/>
</svg>
