<svg width="16" height="19" viewBox="0 0 16 19" fill="none" xmlns="http://www.w3.org/2000/svg">
<path d="M2.3077 19C1.80257 19 1.375 18.825 1.025 18.475C0.675 18.125 0.5 17.6974 0.5 17.1923V5.71153L6.21152 0H13.6922C14.1974 0 14.625 0.175 14.975 0.525C15.325 0.875 15.5 1.30257 15.5 1.8077V17.1923C15.5 17.6974 15.325 18.125 14.975 18.475C14.625 18.825 14.1974 19 13.6922 19H2.3077ZM2.3077 17.5H13.6922C13.7692 17.5 13.8397 17.4679 13.9038 17.4038C13.9679 17.3397 14 17.2692 14 17.1923V1.8077C14 1.73077 13.9679 1.66024 13.9038 1.59613C13.8397 1.53203 13.7692 1.49998 13.6922 1.49998H6.84998L1.99997 6.34998V17.1923C1.99997 17.2692 2.03202 17.3397 2.09612 17.4038C2.16024 17.4679 2.23077 17.5 2.3077 17.5ZM7.99997 14.1153C8.24484 14.1153 8.44708 14.0323 8.6067 13.8663C8.76632 13.7003 8.84613 13.5012 8.84613 13.2692C8.84613 13.0372 8.76632 12.8381 8.6067 12.6721C8.44708 12.5061 8.24484 12.4231 7.99997 12.4231C7.75511 12.4231 7.55287 12.5061 7.39325 12.6721C7.23363 12.8381 7.15382 13.0372 7.15382 13.2692C7.15382 13.5012 7.23363 13.7003 7.39325 13.8663C7.55287 14.0323 7.75511 14.1153 7.99997 14.1153ZM7.25 10.7115H8.74995V5.88463H7.25V10.7115ZM2.3077 17.5H1.99997H14H2.3077Z" fill="#666666"/>
</svg>
