<svg width="31" height="20" viewBox="0 0 31 20" fill="none" xmlns="http://www.w3.org/2000/svg">
<path d="M11.1047 10.4958L15.4047 14.7958C15.536 14.9271 15.714 15.0008 15.8997 15.0008C16.0854 15.0008 16.2634 14.9271 16.3947 14.7958C16.526 14.6645 16.5997 14.4864 16.5997 14.3008C16.5997 14.1151 16.526 13.9371 16.3947 13.8058L12.5897 9.99577L16.3897 6.19577C16.521 6.06449 16.5947 5.88643 16.5947 5.70077C16.5947 5.51511 16.521 5.33705 16.3897 5.20577C16.2584 5.07449 16.0804 5.00073 15.8947 5.00073C15.709 5.00073 15.531 5.07449 15.3997 5.20577L11.1047 9.49577C11.0397 9.56077 10.9881 9.63794 10.9529 9.72287C10.9178 9.80781 10.8997 9.89884 10.8997 9.99077C10.8997 10.0827 10.9178 10.1737 10.9529 10.2587C10.9881 10.3436 11.0397 10.4208 11.1047 10.4858V10.4958Z" fill="#72787F"/>
<path d="M14.8049 10.4958L19.1049 14.7958C19.2362 14.9271 19.4142 15.0008 19.5999 15.0008C19.7856 15.0008 19.9636 14.9271 20.0949 14.7958C20.2262 14.6645 20.2999 14.4864 20.2999 14.3008C20.2999 14.1151 20.2262 13.9371 20.0949 13.8058L16.2899 9.99577L20.0899 6.19577C20.2212 6.06449 20.2949 5.88643 20.2949 5.70077C20.2949 5.51511 20.2212 5.33705 20.0899 5.20577C19.9586 5.07449 19.7806 5.00073 19.5949 5.00073C19.4092 5.00073 19.2312 5.07449 19.0999 5.20577L14.8049 9.49577C14.7399 9.56077 14.6883 9.63794 14.6531 9.72287C14.618 9.80781 14.5999 9.89884 14.5999 9.99077C14.5999 10.0827 14.618 10.1737 14.6531 10.2587C14.6883 10.3436 14.7399 10.4208 14.8049 10.4858V10.4958Z" fill="#72787F"/>
</svg>
