<svg width="14" height="7" viewBox="0 0 14 7" fill="none" xmlns="http://www.w3.org/2000/svg">
<g clip-path="url(#clip0_686_1045)">
<path fill-rule="evenodd" clip-rule="evenodd" d="M4.50749 3.58095L6.5209 5.80166C6.58974 5.87758 6.67149 5.9333 6.75927 5.96882C6.90866 6.05091 7.0914 6.05091 7.24078 5.96879C7.32855 5.93328 7.41027 5.87757 7.4791 5.80166L9.49193 3.58159L12.3534 0.500001H12.2859L14 -1.39062H0L1.71414 0.5H1.64661L4.50749 3.58095Z" fill="white"/>
<path fill-rule="evenodd" clip-rule="evenodd" d="M-1.1283 -1.89062H15.1282L13.414 9.53674e-07H13.5L9.86029 3.91963L7.84946 6.1375C7.7363 6.26231 7.60131 6.35755 7.4547 6.42121C7.16961 6.56676 6.83037 6.56677 6.54527 6.42125C6.39863 6.35759 6.26361 6.26234 6.15043 6.13751L4.13899 3.91897L0.499941 0H0.585844L-1.1283 -1.89062ZM2.79315 1L4.87788 3.24508L6.89126 5.46581C6.90899 5.48536 6.92801 5.49774 6.94672 5.50531L6.97412 5.51639L6.99995 5.53059L7.02578 5.51639L7.05317 5.50531C7.07188 5.49773 7.09089 5.48537 7.10862 5.46582L9.12545 3.24134L11.2067 1L12.8717 -0.890625H1.12818L2.79315 1Z" fill="#929292"/>
</g>
<defs>
<clipPath id="clip0_686_1045">
<rect width="14" height="7" fill="white"/>
</clipPath>
</defs>
</svg>
