<svg width="17" height="18" viewBox="0 0 17 18" fill="none" xmlns="http://www.w3.org/2000/svg"><path d="M2.17861 17.8499C1.59032 17.8499 1.09089 17.6446 0.680326 17.234C0.269744 16.8234 0.0644531 16.324 0.0644531 15.7357V3.96403C0.0644531 3.37574 0.269744 2.87631 0.680326 2.46574C1.09089 2.05516 1.59032 1.84987 2.17861 1.84987H2.68151V0.116211H4.56403V1.84987H11.5979V0.116211H13.4474V1.84987H13.9503C14.5386 1.84987 15.038 2.05516 15.4486 2.46574C15.8592 2.87631 16.0645 3.37574 16.0645 3.96403V15.7357C16.0645 16.324 15.8592 16.8234 15.4486 17.234C15.038 17.6446 14.5386 17.8499 13.9503 17.8499L2.17861 17.8499ZM2.17861 16.0004H13.9503C14.0165 16.0004 14.0771 15.9729 14.1323 15.9177C14.1874 15.8626 14.215 15.8019 14.215 15.7357V7.14683H1.9139V15.7357C1.9139 15.8019 1.94147 15.8626 1.99661 15.9177C2.05176 15.9729 2.11243 16.0004 2.17861 16.0004ZM1.9139 5.29739H14.215V3.96403C14.215 3.89785 14.1874 3.83718 14.1323 3.78203C14.0771 3.72689 14.0165 3.69932 13.9503 3.69932H2.17861C2.11243 3.69932 2.05176 3.72689 1.99661 3.78203C1.94147 3.83718 1.9139 3.89785 1.9139 3.96403V5.29739Z" fill="#111111"/></svg>
