<svg width="17" height="16" viewBox="0 0 17 16" fill="none" xmlns="http://www.w3.org/2000/svg"><path d="M8.49074 12.7287C8.73119 12.7287 8.93427 12.6457 9.1 12.4797C9.26571 12.3137 9.34857 12.1104 9.34857 11.87C9.34857 11.6295 9.26556 11.4265 9.09954 11.2607C8.93352 11.095 8.73028 11.0122 8.48983 11.0122C8.24938 11.0122 8.0463 11.0952 7.88059 11.2612C7.71486 11.4272 7.632 11.6304 7.632 11.8709C7.632 12.1113 7.71501 12.3144 7.88103 12.4802C8.04705 12.6459 8.25029 12.7287 8.49074 12.7287ZM7.89433 9.71335H9.07975C9.09054 9.29878 9.15127 8.96761 9.26194 8.71983C9.37259 8.47207 9.64115 8.1436 10.0676 7.73442C10.4379 7.3641 10.7216 7.02213 10.9186 6.7085C11.1156 6.39487 11.2142 6.02449 11.2142 5.59736C11.2142 4.87255 10.9537 4.30636 10.4328 3.89879C9.91189 3.49124 9.29569 3.28746 8.58421 3.28746C7.88139 3.28746 7.29974 3.47505 6.83928 3.85022C6.37883 4.22538 6.05036 4.66721 5.85387 5.1757L6.93562 5.6097C7.03819 5.33008 7.21362 5.05775 7.46193 4.79271C7.71026 4.52765 8.07895 4.39513 8.56802 4.39513C9.06573 4.39513 9.43362 4.53144 9.67167 4.80405C9.90973 5.07666 10.0288 5.37653 10.0288 5.70366C10.0288 5.98975 9.94725 6.25155 9.78421 6.48907C9.62119 6.72659 9.41337 6.95601 9.16074 7.17735C8.60798 7.67613 8.25872 8.07397 8.11297 8.37086C7.96721 8.66776 7.89433 9.11526 7.89433 9.71335ZM8.50141 16C7.39494 16 6.35491 15.79 5.38132 15.3701C4.40772 14.9502 3.56082 14.3803 2.84064 13.6604C2.12044 12.9405 1.55028 12.094 1.13017 11.1208C0.710057 10.1477 0.5 9.10788 0.5 8.00141C0.5 6.89494 0.709966 5.85491 1.1299 4.88132C1.54983 3.90772 2.11972 3.06082 2.83958 2.34064C3.55946 1.62044 4.40598 1.05028 5.37915 0.630171C6.3523 0.210058 7.39212 0 8.49859 0C9.60506 0 10.6451 0.209966 11.6187 0.629897C12.5923 1.04983 13.4392 1.61972 14.1594 2.33959C14.8796 3.05946 15.4497 3.90598 15.8698 4.87915C16.2899 5.8523 16.5 6.89212 16.5 7.99859C16.5 9.10506 16.29 10.1451 15.8701 11.1187C15.4502 12.0923 14.8803 12.9392 14.1604 13.6594C13.4405 14.3796 12.594 14.9497 11.6208 15.3698C10.6477 15.7899 9.60788 16 8.50141 16Z" fill="#666666"/></svg>
