<svg width="12" height="8" viewBox="0 0 12 8" fill="none" xmlns="http://www.w3.org/2000/svg"><path d="M0.0898438 7.75001L2.87349 0.27887H3.94222L6.7475 7.75001H5.69896L4.98069 5.72933H1.83502L1.12394 7.75001H0.0898438ZM2.15664 4.8582H4.66627L3.44174 1.38508H3.38116L2.15664 4.8582ZM9.36387 7.94905C8.78504 7.94905 8.33023 7.79688 7.99946 7.49256C7.66869 7.18823 7.50331 6.7755 7.50331 6.25435C7.50331 5.72935 7.69802 5.30242 8.08743 4.97357C8.47686 4.64473 8.9831 4.48031 9.60618 4.48031C9.87925 4.48031 10.1389 4.50459 10.385 4.55314C10.6312 4.6017 10.8418 4.67598 11.0168 4.77598V4.44137C11.0168 4.03175 10.8987 3.71491 10.6627 3.49088C10.4266 3.26683 10.0918 3.1548 9.6581 3.1548C9.40041 3.1548 9.15834 3.20504 8.93189 3.30553C8.70546 3.40601 8.49656 3.55528 8.30521 3.75336L7.67206 3.24713C7.92399 2.95289 8.21437 2.73269 8.54321 2.58654C8.87206 2.44039 9.24754 2.36732 9.66965 2.36732C10.4062 2.36732 10.9639 2.54929 11.3427 2.91324C11.7215 3.27718 11.911 3.81156 11.911 4.51637V7.7803H11.0283V7.0851H10.9648C10.7975 7.36395 10.5776 7.57766 10.305 7.72622C10.0324 7.87477 9.71869 7.94905 9.36387 7.94905ZM9.46482 7.18465C9.90329 7.18465 10.2716 7.02479 10.5696 6.70508C10.8677 6.38536 11.0168 5.98945 11.0168 5.51732C10.8466 5.41732 10.6466 5.34112 10.4168 5.28872C10.1869 5.23631 9.96868 5.2101 9.76196 5.2101C9.33311 5.2101 9.00161 5.30145 8.76747 5.48415C8.53334 5.66684 8.41627 5.92357 8.41627 6.25435C8.41627 6.5332 8.51242 6.75796 8.70474 6.92863C8.89704 7.09931 9.1504 7.18465 9.46482 7.18465Z" fill="#666666"/></svg>
