<svg width="12" height="12" viewBox="0 0 12 12" fill="none" xmlns="http://www.w3.org/2000/svg"><path d="M5.99998 5.7692C5.27812 5.7692 4.66016 5.51218 4.14609 4.99813C3.63203 4.48406 3.375 3.8661 3.375 3.14424C3.375 2.42236 3.63203 1.8044 4.14609 1.29035C4.66016 0.776288 5.27812 0.519257 5.99998 0.519257C6.72184 0.519257 7.33981 0.776288 7.85387 1.29035C8.36793 1.8044 8.62496 2.42236 8.62496 3.14424C8.62496 3.8661 8.36793 4.48406 7.85387 4.99813C7.33981 5.51218 6.72184 5.7692 5.99998 5.7692ZM0.375 11.4807V9.81345C0.375 9.44615 0.474762 9.10601 0.674287 8.79303C0.8738 8.48006 1.14038 8.23943 1.47403 8.07116C2.21538 7.7077 2.96322 7.4351 3.71754 7.25338C4.47187 7.07165 5.23268 6.98079 5.99998 6.98079C6.76728 6.98079 7.52809 7.07165 8.28242 7.25338C9.03674 7.4351 9.78458 7.7077 10.5259 8.07116C10.8596 8.23943 11.1262 8.48006 11.3257 8.79303C11.5252 9.10601 11.625 9.44615 11.625 9.81345V11.4807H0.375ZM1.49998 10.3558H10.5V9.81345C10.5 9.66152 10.456 9.5209 10.368 9.39157C10.28 9.26225 10.1606 9.15671 10.0096 9.07498C9.36344 8.75671 8.70458 8.51561 8.03301 8.35166C7.36143 8.18772 6.68376 8.10575 5.99998 8.10575C5.31621 8.10575 4.63853 8.18772 3.96696 8.35166C3.29538 8.51561 2.63652 8.75671 1.99037 9.07498C1.83941 9.15671 1.71994 9.26225 1.63196 9.39157C1.54397 9.5209 1.49998 9.66152 1.49998 9.81345V10.3558ZM5.99998 4.64424C6.41248 4.64424 6.76561 4.49736 7.05936 4.20361C7.35311 3.90986 7.49998 3.55674 7.49998 3.14424C7.49998 2.73174 7.35311 2.37861 7.05936 2.08486C6.76561 1.79111 6.41248 1.64424 5.99998 1.64424C5.58748 1.64424 5.23436 1.79111 4.94061 2.08486C4.64686 2.37861 4.49998 2.73174 4.49998 3.14424C4.49998 3.55674 4.64686 3.90986 4.94061 4.20361C5.23436 4.49736 5.58748 4.64424 5.99998 4.64424Z" fill="#666666"/></svg>
