<svg width="14" height="14" viewBox="0 0 14 14" fill="none" xmlns="http://www.w3.org/2000/svg"><path d="M4.46873 13.375C3.39951 13.375 2.49158 13.0017 1.74496 12.255C0.998319 11.5084 0.625 10.6005 0.625 9.53126C0.625 9.01684 0.722837 8.52501 0.918512 8.05579C1.11419 7.58656 1.39279 7.17118 1.75433 6.80964L6.80961 1.75436C7.17115 1.39282 7.58653 1.11422 8.05576 0.918544C8.52498 0.722869 9.01681 0.625031 9.53123 0.625031C10.6005 0.625031 11.5084 0.99835 12.255 1.74499C13.0016 2.49161 13.375 3.39954 13.375 4.46876C13.375 4.98319 13.2771 5.47501 13.0815 5.94424C12.8858 6.41346 12.6072 6.82884 12.2456 7.19038L7.19035 12.2457C6.82881 12.6072 6.41343 12.8858 5.94421 13.0815C5.47498 13.2772 4.98316 13.375 4.46873 13.375ZM9.32641 8.51734L11.4625 6.40001C11.7125 6.15001 11.9062 5.85626 12.0437 5.51876C12.1812 5.18126 12.25 4.83126 12.25 4.46876C12.25 3.71876 11.9844 3.07814 11.4531 2.54689C10.9219 2.01564 10.2812 1.75001 9.53123 1.75001C9.16873 1.75001 8.81873 1.81876 8.48123 1.95626C8.14373 2.09376 7.84998 2.28751 7.59998 2.53751L5.48266 4.67359L9.32641 8.51734ZM4.46873 12.25C4.83123 12.25 5.18123 12.1813 5.51873 12.0438C5.85623 11.9063 6.14998 11.7125 6.39998 11.4625L8.51731 9.32644L4.67356 5.48269L2.53748 7.60001C2.28748 7.85001 2.09373 8.14376 1.95623 8.48126C1.81873 8.81876 1.74998 9.16876 1.74998 9.53126C1.74998 10.2813 2.01561 10.9219 2.54686 11.4531C3.07811 11.9844 3.71873 12.25 4.46873 12.25Z" fill="#666666"/></svg>
