<svg width="16" height="20" viewBox="0 0 16 20" fill="none" xmlns="http://www.w3.org/2000/svg"><path d="M2.3077 19.5C1.80257 19.5 1.375 19.325 1.025 18.975C0.675 18.625 0.5 18.1974 0.5 17.6923V6.21153L6.21152 0.5H13.6922C14.1974 0.5 14.625 0.675 14.975 1.025C15.325 1.375 15.5 1.80257 15.5 2.3077V17.6923C15.5 18.1974 15.325 18.625 14.975 18.975C14.625 19.325 14.1974 19.5 13.6922 19.5H2.3077ZM2.3077 18H13.6922C13.7692 18 13.8397 17.9679 13.9038 17.9038C13.9679 17.8397 14 17.7692 14 17.6923V2.3077C14 2.23077 13.9679 2.16024 13.9038 2.09613C13.8397 2.03203 13.7692 1.99998 13.6922 1.99998H6.84998L1.99997 6.84998V17.6923C1.99997 17.7692 2.03202 17.8397 2.09612 17.9038C2.16024 17.9679 2.23077 18 2.3077 18ZM7.99997 14.6153C8.24484 14.6153 8.44708 14.5323 8.6067 14.3663C8.76632 14.2003 8.84613 14.0012 8.84613 13.7692C8.84613 13.5372 8.76632 13.3381 8.6067 13.1721C8.44708 13.0061 8.24484 12.9231 7.99997 12.9231C7.75511 12.9231 7.55287 13.0061 7.39325 13.1721C7.23363 13.3381 7.15382 13.5372 7.15382 13.7692C7.15382 14.0012 7.23363 14.2003 7.39325 14.3663C7.55287 14.5323 7.75511 14.6153 7.99997 14.6153ZM7.25 11.2115H8.74995V6.38463H7.25V11.2115ZM2.3077 18H1.99997H14H2.3077Z" fill="#666666"/></svg>
