<svg width="16" height="17" viewBox="0 0 16 17" fill="none" xmlns="http://www.w3.org/2000/svg"><path d="M14.4519 16.4742L11.023 13.0453C10.5083 13.4531 9.87775 13.7728 9.13139 14.0045C8.38504 14.2361 7.64562 14.3519 6.91313 14.3519C4.98205 14.3519 3.34709 13.6826 2.00826 12.3441C0.669418 11.0056 0 9.371 0 7.44039C0 5.50975 0.669264 3.87463 2.00779 2.53502C3.34632 1.19543 4.9809 0.525635 6.91154 0.525635C8.84215 0.525635 10.4773 1.19505 11.8169 2.53389C13.1565 3.87273 13.8263 5.50769 13.8263 7.43877C13.8263 8.19105 13.7157 8.91893 13.4947 9.62239C13.2736 10.3258 12.9572 10.9422 12.5454 11.4714L16 14.926L14.4519 16.4742ZM6.91313 12.1386C8.23955 12.1386 9.35446 11.6869 10.2579 10.7835C11.1613 9.88009 11.613 8.76518 11.613 7.43877C11.613 6.11235 11.1613 4.99744 10.2579 4.09403C9.35446 3.19061 8.23955 2.7389 6.91313 2.7389C5.58672 2.7389 4.4718 3.19061 3.56839 4.09403C2.66499 4.99744 2.2133 6.11235 2.2133 7.43877C2.2133 8.76518 2.66499 9.88009 3.56839 10.7835C4.4718 11.6869 5.58672 12.1386 6.91313 12.1386Z" fill="#111111"/></svg>
