<svg width="16" height="18" viewBox="0 0 16 18" fill="none" xmlns="http://www.w3.org/2000/svg"><path d="M14.1126 9.80599C14.1455 9.54281 14.1701 9.27963 14.1701 9C14.1701 8.72037 14.1455 8.45719 14.1126 8.19401L15.8479 6.83698C16.0042 6.71361 16.0453 6.49155 15.9466 6.31061L14.3017 3.46496C14.2277 3.33337 14.0879 3.25935 13.9399 3.25935C13.8905 3.25935 13.8412 3.26757 13.8 3.28402L11.7522 4.10647C11.3245 3.77749 10.8639 3.50608 10.3622 3.30047L10.0497 1.121C10.025 0.923613 9.85231 0.775574 9.6467 0.775574H6.35693C6.15132 0.775574 5.97861 0.923613 5.95393 1.121L5.64141 3.30047C5.13972 3.50608 4.67915 3.78571 4.25148 4.10647L2.2036 3.28402C2.15425 3.26757 2.1049 3.25935 2.05556 3.25935C1.91574 3.25935 1.77593 3.33337 1.70191 3.46496L0.0570212 6.31061C-0.0498963 6.49155 -0.000549644 6.71361 0.155714 6.83698L1.89107 8.19401C1.85817 8.45719 1.8335 8.72859 1.8335 9C1.8335 9.27141 1.85817 9.54281 1.89107 9.80599L0.155714 11.163C-0.000549644 11.2864 -0.0416719 11.5084 0.0570212 11.6894L1.70191 14.535C1.77593 14.6666 1.91574 14.7406 2.06378 14.7406C2.11313 14.7406 2.16247 14.7324 2.2036 14.716L4.25148 13.8935C4.67915 14.2225 5.13972 14.4939 5.64141 14.6995L5.95393 16.879C5.97861 17.0764 6.15132 17.2244 6.35693 17.2244H9.6467C9.85231 17.2244 10.025 17.0764 10.0497 16.879L10.3622 14.6995C10.8639 14.4939 11.3245 14.2143 11.7522 13.8935L13.8 14.716C13.8494 14.7324 13.8987 14.7406 13.9481 14.7406C14.0879 14.7406 14.2277 14.6666 14.3017 14.535L15.9466 11.6894C16.0453 11.5084 16.0042 11.2864 15.8479 11.163L14.1126 9.80599ZM12.4841 8.39962C12.517 8.65457 12.5253 8.82729 12.5253 9C12.5253 9.17271 12.5088 9.35365 12.4841 9.60038L12.369 10.5297L13.101 11.1055L13.9892 11.7963L13.4135 12.7915L12.369 12.372L11.5136 12.0266L10.7734 12.5858C10.4198 12.849 10.0826 13.0464 9.74539 13.1862L8.87361 13.5399L8.74201 14.4692L8.57753 15.5795H7.42611L7.26984 14.4692L7.13825 13.5399L6.26646 13.1862C5.91281 13.0382 5.58383 12.849 5.25486 12.6023L4.50643 12.0266L3.63465 12.3802L2.59014 12.7997L2.01443 11.8045L2.90267 11.1137L3.63465 10.538L3.5195 9.60861C3.49483 9.35365 3.47838 9.16449 3.47838 9C3.47838 8.83551 3.49483 8.64635 3.5195 8.39962L3.63465 7.47026L2.90267 6.89455L2.01443 6.20369L2.59014 5.20854L3.63465 5.62799L4.48999 5.97341L5.23019 5.41415C5.58384 5.15097 5.92104 4.95358 6.25824 4.81377L7.13003 4.46012L7.26162 3.53076L7.42611 2.42046H8.5693L8.72557 3.53076L8.85716 4.46012L9.72895 4.81377C10.0826 4.96181 10.4116 5.15097 10.7405 5.3977L11.489 5.97341L12.3608 5.61976L13.4053 5.20031L13.981 6.19547L13.101 6.89455L12.369 7.47026L12.4841 8.39962ZM8.00182 5.71023C6.18422 5.71023 4.71205 7.1824 4.71205 9C4.71205 10.8176 6.18422 12.2898 8.00182 12.2898C9.81941 12.2898 11.2916 10.8176 11.2916 9C11.2916 7.1824 9.81941 5.71023 8.00182 5.71023ZM8.00182 10.6449C7.09713 10.6449 6.35693 9.90469 6.35693 9C6.35693 8.09531 7.09713 7.35511 8.00182 7.35511C8.9065 7.35511 9.6467 8.09531 9.6467 9C9.6467 9.90469 8.9065 10.6449 8.00182 10.6449Z" fill="#111111"/></svg>
