<svg width="14" height="15" viewBox="0 0 14 15" fill="none" xmlns="http://www.w3.org/2000/svg"><path d="M8.11163 14.125C6.86323 14.125 5.79978 13.6873 4.92127 12.8118C4.04277 11.9363 3.60352 10.874 3.60352 9.62502V9.21541C2.59102 9.08369 1.74414 8.63225 1.06289 7.8611C0.381641 7.08995 0.0410156 6.17793 0.0410156 5.12504V0.812561H2.29102V0.062561H3.416V2.68754H2.29102V1.93754H1.166V5.12504C1.166 5.95004 1.45975 6.65629 2.04725 7.24379C2.63475 7.83129 3.341 8.12504 4.166 8.12504C4.991 8.12504 5.69725 7.83129 6.28475 7.24379C6.87225 6.65629 7.166 5.95004 7.166 5.12504V1.93754H6.04096V2.68754H4.916V0.062561H6.04096V0.812561H8.29096V5.12504C8.29096 6.17793 7.95034 7.08995 7.2691 7.8611C6.58785 8.63225 5.74098 9.08369 4.72848 9.21541V9.62502C4.72848 10.5625 5.0573 11.3594 5.71495 12.0156C6.3726 12.6719 7.17118 13 8.1107 13C9.0482 13 9.84507 12.6719 10.5013 12.0156C11.1576 11.3594 11.4857 10.5625 11.4857 9.62502V8.41205C11.0915 8.2957 10.767 8.06902 10.5121 7.732C10.2573 7.39499 10.1299 7.01159 10.1299 6.58179C10.1299 6.04894 10.3165 5.59602 10.6897 5.22303C11.0628 4.85003 11.5159 4.66353 12.049 4.66353C12.5821 4.66353 13.0349 4.85003 13.4075 5.22303C13.7801 5.59602 13.9664 6.04894 13.9664 6.58179C13.9664 7.01159 13.839 7.39499 13.5842 7.732C13.3294 8.06902 13.0049 8.2957 12.6107 8.41205V9.62502C12.6107 10.874 12.1729 11.9363 11.2974 12.8118C10.422 13.6873 9.36003 14.125 8.11163 14.125ZM12.0482 7.37504C12.2703 7.37504 12.458 7.29836 12.6114 7.145C12.7648 6.99164 12.8415 6.8039 12.8415 6.58179C12.8415 6.35966 12.7648 6.17192 12.6114 6.01856C12.458 5.86519 12.2703 5.78851 12.0482 5.78851C11.8261 5.78851 11.6383 5.86519 11.4849 6.01856C11.3316 6.17192 11.2549 6.35966 11.2549 6.58179C11.2549 6.8039 11.3316 6.99164 11.4849 7.145C11.6383 7.29836 11.8261 7.37504 12.0482 7.37504Z" fill="white"/></svg>
