<svg width="16" height="16" viewBox="0 0 16 16" fill="none" xmlns="http://www.w3.org/2000/svg"><path d="M9.42785 14.7904C9.21205 15.0057 8.94464 15.1134 8.62563 15.1134C8.30662 15.1134 8.03942 15.0057 7.82403 14.7904L1.22403 8.19035C1.11538 8.0817 1.03005 7.95664 0.968037 7.81516C0.906012 7.6737 0.875 7.52281 0.875 7.36248V1.99998C0.875 1.69326 0.985819 1.42908 1.20746 1.20746C1.42908 0.985819 1.69326 0.875 1.99998 0.875H7.36248C7.51728 0.875 7.66556 0.905213 7.80733 0.965638C7.9491 1.02605 8.07197 1.10738 8.17593 1.20961L14.7759 7.82116C14.9961 8.04135 15.1074 8.31033 15.1098 8.62811C15.1122 8.94588 15.0057 9.21246 14.7904 9.42785L9.42785 14.7904ZM8.62271 14L13.9885 8.63748L7.36571 1.99998H1.99998V7.36248L8.62271 14ZM3.87414 4.81246C4.13431 4.81246 4.35574 4.7214 4.53843 4.53928C4.72112 4.35715 4.81246 4.136 4.81246 3.87583C4.81246 3.61565 4.7214 3.39422 4.53927 3.21153C4.35715 3.02884 4.136 2.9375 3.87583 2.9375C3.61565 2.9375 3.39422 3.02856 3.21153 3.21069C3.02884 3.39281 2.9375 3.61396 2.9375 3.87414C2.9375 4.13431 3.02856 4.35574 3.21069 4.53843C3.39281 4.72112 3.61396 4.81246 3.87414 4.81246Z" fill="#666666"/></svg>
