<svg width="20" height="20" viewBox="0 0 20 20" fill="none" xmlns="http://www.w3.org/2000/svg">
<mask id="mask0_489_3159" style="mask-type:alpha" maskUnits="userSpaceOnUse" x="0" y="0" width="20" height="20">
<rect width="20" height="20" fill="#D9D9D9"/>
</mask>
<g mask="url(#mask0_489_3159)">
<path d="M10.0697 16.0298C9.20544 16.0298 8.39288 15.8658 7.63204 15.5378C6.87119 15.2098 6.20936 14.7646 5.64653 14.2023C5.08372 13.64 4.63816 12.9788 4.30985 12.2187C3.98154 11.4586 3.81738 10.6464 3.81738 9.78211C3.81738 8.91784 3.98138 8.10528 4.30938 7.34444C4.63739 6.58359 5.08254 5.92176 5.64483 5.35893C6.20712 4.79612 6.86833 4.35056 7.62846 4.02225C8.3886 3.69394 9.2008 3.52979 10.0651 3.52979C10.9293 3.52979 11.7419 3.69378 12.5027 4.02178C13.2636 4.34979 13.9254 4.79494 14.4882 5.35723C15.051 5.91952 15.4966 6.58073 15.8249 7.34086C16.1532 8.101 16.3174 8.9132 16.3174 9.77746C16.3174 10.6417 16.1534 11.4543 15.8254 12.2151C15.4974 12.976 15.0522 13.6378 14.4899 14.2006C13.9276 14.7634 13.2664 15.209 12.5063 15.5373C11.7462 15.8656 10.934 16.0298 10.0697 16.0298ZM10.0674 15.3353C11.6183 15.3353 12.932 14.7971 14.0084 13.7208C15.0847 12.6444 15.6229 11.3307 15.6229 9.77979C15.6229 8.22886 15.0847 6.9152 14.0084 5.83881C12.932 4.76242 11.6183 4.22423 10.0674 4.22423C8.51646 4.22423 7.2028 4.76242 6.12641 5.83881C5.05002 6.9152 4.51183 8.22886 4.51183 9.77979C4.51183 11.3307 5.05002 12.6444 6.12641 13.7208C7.2028 14.7971 8.51646 15.3353 10.0674 15.3353ZM10.0705 13.252C9.10689 13.252 8.28675 12.9147 7.61011 12.2402C6.93348 11.5657 6.59516 10.7466 6.59516 9.78293C6.59516 8.81929 6.93243 7.99915 7.60697 7.32251C8.28152 6.64588 9.10061 6.30756 10.0642 6.30756C11.0279 6.30756 11.848 6.64483 12.5247 7.31937C13.2013 7.99392 13.5396 8.81301 13.5396 9.77664C13.5396 10.7403 13.2023 11.5604 12.5278 12.2371C11.8533 12.9137 11.0342 13.252 10.0705 13.252ZM10.0674 12.5576C10.8313 12.5576 11.4852 12.2856 12.0292 11.7416C12.5732 11.1976 12.8452 10.5437 12.8452 9.77979C12.8452 9.0159 12.5732 8.36196 12.0292 7.81798C11.4852 7.274 10.8313 7.00201 10.0674 7.00201C9.30349 7.00201 8.64956 7.274 8.10558 7.81798C7.5616 8.36196 7.28961 9.0159 7.28961 9.77979C7.28961 10.5437 7.5616 11.1976 8.10558 11.7416C8.64956 12.2856 9.30349 12.5576 10.0674 12.5576ZM10.0674 10.4742C9.88131 10.4742 9.71904 10.405 9.5806 10.2666C9.44216 10.1281 9.37294 9.96586 9.37294 9.77979C9.37294 9.59371 9.44216 9.43145 9.5806 9.293C9.71904 9.15456 9.88131 9.08534 10.0674 9.08534C10.2535 9.08534 10.4157 9.15456 10.5542 9.293C10.6926 9.43145 10.7618 9.59371 10.7618 9.77979C10.7618 9.96586 10.6926 10.1281 10.5542 10.2666C10.4157 10.405 10.2535 10.4742 10.0674 10.4742Z" fill="white"/>
<path d="M1.31738 10.4049V9.36328H5.69238V10.4049H1.31738Z" fill="white"/>
<path d="M14.6509 10.4049V9.36328H19.0259V10.4049H14.6509Z" fill="white"/>
<path d="M10.6925 5.40479L9.65088 5.40479L9.65088 1.02979L10.6925 1.02979L10.6925 5.40479Z" fill="white"/>
<path d="M10.6925 18.7383L9.65088 18.7383L9.65088 14.3633L10.6925 14.3633L10.6925 18.7383Z" fill="white"/>
</g>
</svg>
