<svg width="20" height="14" viewBox="0 0 20 14" fill="none" xmlns="http://www.w3.org/2000/svg"><path d="M1.5 14C1.078 14 0.722667 13.8553 0.434 13.566C0.144667 13.2773 0 12.922 0 12.5V1.615C0 1.19367 0.163667 0.819 0.491 0.491C0.819 0.163667 1.19367 0 1.615 0H6.596L8.596 2H16.385C16.7297 2 17.0303 2.09333 17.287 2.28C17.5443 2.46667 17.7243 2.70667 17.827 3H8.194L6.194 1H1.615C1.43567 1 1.28833 1.05767 1.173 1.173C1.05767 1.28833 1 1.43567 1 1.615V12.385C1 12.5257 1.03533 12.641 1.106 12.731C1.17667 12.8203 1.26967 12.897 1.385 12.961L3.65 5.385H19.865L17.598 12.94C17.5033 13.258 17.3217 13.5143 17.053 13.709C16.7843 13.903 16.4843 14 16.153 14H1.5ZM2.427 13H16.538L18.512 6.385H4.4L2.427 13Z" fill="#25B4AD"/></svg>
