<svg width="99" height="38" viewBox="0 0 99 38" fill="none" xmlns="http://www.w3.org/2000/svg">
<path d="M10.3271 19.9326H4.83398L4.80469 16.5635H9.25781C10.0586 16.5635 10.6982 16.4756 11.1768 16.2998C11.6553 16.1143 12.002 15.8457 12.2168 15.4941C12.4414 15.1426 12.5537 14.7031 12.5537 14.1758C12.5537 13.5703 12.4414 13.082 12.2168 12.7109C11.9922 12.3398 11.6357 12.0713 11.1475 11.9053C10.6689 11.7295 10.0488 11.6416 9.28711 11.6416H6.76758V29H1.62598V7.67188H9.28711C10.6055 7.67188 11.7822 7.79395 12.8174 8.03809C13.8525 8.27246 14.7314 8.63379 15.4541 9.12207C16.1865 9.61035 16.7432 10.2256 17.124 10.9678C17.5049 11.7002 17.6953 12.5645 17.6953 13.5605C17.6953 14.4297 17.5098 15.2451 17.1387 16.0068C16.7676 16.7686 16.1475 17.3887 15.2783 17.8672C14.4189 18.3359 13.2422 18.5801 11.748 18.5996L10.3271 19.9326ZM10.1221 29H3.58887L5.34668 25.0449H10.1221C10.8252 25.0449 11.3867 24.9375 11.8066 24.7227C12.2363 24.498 12.5439 24.2051 12.7295 23.8438C12.9248 23.4727 13.0225 23.0625 13.0225 22.6133C13.0225 22.0664 12.9297 21.5928 12.7441 21.1924C12.5684 20.792 12.2852 20.4844 11.8945 20.2695C11.5039 20.0449 10.9814 19.9326 10.3271 19.9326H6.00586L6.03516 16.5635H11.2061L12.4072 17.9111C13.833 17.8525 14.9609 18.0527 15.791 18.5117C16.6309 18.9707 17.2314 19.5762 17.5928 20.3281C17.9541 21.0801 18.1348 21.8662 18.1348 22.6865C18.1348 24.083 17.832 25.25 17.2266 26.1875C16.6309 27.125 15.7373 27.8281 14.5459 28.2969C13.3545 28.7656 11.8799 29 10.1221 29ZM26.4551 7.67188V29H21.3281V7.67188H26.4551ZM52.9688 17.2373V18.7754H40.0049V17.2373H52.9688ZM40.4297 7.67188V29H38.6279V7.67188H40.4297ZM54.4189 7.67188V29H52.6172V7.67188H54.4189ZM65.5811 29.293C64.5459 29.293 63.5938 29.1025 62.7246 28.7217C61.8652 28.3408 61.1133 27.8037 60.4688 27.1104C59.834 26.417 59.3408 25.5967 58.9893 24.6494C58.6475 23.6924 58.4766 22.6475 58.4766 21.5146V20.8848C58.4766 19.6641 58.6572 18.5605 59.0186 17.5742C59.3799 16.5879 59.8779 15.7432 60.5127 15.04C61.1475 14.3369 61.8701 13.7998 62.6807 13.4287C63.501 13.0479 64.3604 12.8574 65.2588 12.8574C66.2646 12.8574 67.1582 13.0381 67.9395 13.3994C68.7207 13.751 69.375 14.2539 69.9023 14.9082C70.4395 15.5527 70.8447 16.3193 71.1182 17.208C71.3916 18.0869 71.5283 19.0586 71.5283 20.123V21.1924H59.5312V19.6982H69.7852V19.4932C69.7656 18.6045 69.585 17.7744 69.2432 17.0029C68.9111 16.2217 68.4131 15.5869 67.749 15.0986C67.085 14.6104 66.2549 14.3662 65.2588 14.3662C64.5166 14.3662 63.833 14.5225 63.208 14.835C62.5928 15.1475 62.0605 15.5967 61.6113 16.1826C61.1719 16.7588 60.8301 17.4473 60.5859 18.248C60.3516 19.0391 60.2344 19.918 60.2344 20.8848V21.5146C60.2344 22.3936 60.3613 23.2139 60.6152 23.9756C60.8789 24.7275 61.25 25.3916 61.7285 25.9678C62.2168 26.5439 62.793 26.9932 63.457 27.3154C64.1211 27.6377 64.8535 27.7988 65.6543 27.7988C66.5918 27.7988 67.4219 27.6279 68.1445 27.2861C68.8672 26.9346 69.5166 26.3828 70.0928 25.6309L71.1914 26.4805C70.8496 26.9883 70.4199 27.457 69.9023 27.8867C69.3945 28.3164 68.7842 28.6582 68.0713 28.9121C67.3584 29.166 66.5283 29.293 65.5811 29.293ZM76.7285 15.7725V29H74.9854V13.1504H76.6846L76.7285 15.7725ZM82.3389 13.0332L82.2949 14.6445C82.0996 14.6152 81.9092 14.5908 81.7236 14.5713C81.5381 14.5518 81.3379 14.542 81.123 14.542C80.3613 14.542 79.6924 14.6836 79.1162 14.9668C78.5498 15.2402 78.0713 15.626 77.6807 16.124C77.29 16.6123 76.9922 17.1885 76.7871 17.8525C76.582 18.5068 76.4648 19.21 76.4355 19.9619L75.791 20.2109C75.791 19.1758 75.8984 18.2139 76.1133 17.3252C76.3281 16.4365 76.6553 15.6602 77.0947 14.9961C77.5439 14.3223 78.1055 13.7998 78.7793 13.4287C79.4629 13.0479 80.2637 12.8574 81.1816 12.8574C81.4062 12.8574 81.626 12.877 81.8408 12.916C82.0654 12.9453 82.2314 12.9844 82.3389 13.0332ZM90.9229 29.293C89.8877 29.293 88.9355 29.1025 88.0664 28.7217C87.207 28.3408 86.4551 27.8037 85.8105 27.1104C85.1758 26.417 84.6826 25.5967 84.3311 24.6494C83.9893 23.6924 83.8184 22.6475 83.8184 21.5146V20.8848C83.8184 19.6641 83.999 18.5605 84.3604 17.5742C84.7217 16.5879 85.2197 15.7432 85.8545 15.04C86.4893 14.3369 87.2119 13.7998 88.0225 13.4287C88.8428 13.0479 89.7021 12.8574 90.6006 12.8574C91.6064 12.8574 92.5 13.0381 93.2812 13.3994C94.0625 13.751 94.7168 14.2539 95.2441 14.9082C95.7812 15.5527 96.1865 16.3193 96.46 17.208C96.7334 18.0869 96.8701 19.0586 96.8701 20.123V21.1924H84.873V19.6982H95.127V19.4932C95.1074 18.6045 94.9268 17.7744 94.585 17.0029C94.2529 16.2217 93.7549 15.5869 93.0908 15.0986C92.4268 14.6104 91.5967 14.3662 90.6006 14.3662C89.8584 14.3662 89.1748 14.5225 88.5498 14.835C87.9346 15.1475 87.4023 15.5967 86.9531 16.1826C86.5137 16.7588 86.1719 17.4473 85.9277 18.248C85.6934 19.0391 85.5762 19.918 85.5762 20.8848V21.5146C85.5762 22.3936 85.7031 23.2139 85.957 23.9756C86.2207 24.7275 86.5918 25.3916 87.0703 25.9678C87.5586 26.5439 88.1348 26.9932 88.7988 27.3154C89.4629 27.6377 90.1953 27.7988 90.9961 27.7988C91.9336 27.7988 92.7637 27.6279 93.4863 27.2861C94.209 26.9346 94.8584 26.3828 95.4346 25.6309L96.5332 26.4805C96.1914 26.9883 95.7617 27.457 95.2441 27.8867C94.7363 28.3164 94.126 28.6582 93.4131 28.9121C92.7002 29.166 91.8701 29.293 90.9229 29.293Z" fill="#C7C7C7"/>
</svg>
