<svg width="182" height="152" viewBox="0 0 182 152" fill="none" xmlns="http://www.w3.org/2000/svg">
<g clip-path="url(#clip0_343_6923)">
<path d="M180.763 78.1384C185.128 39.7257 157.526 5.04767 119.113 0.682934C80.7007 -3.6818 46.0227 23.9196 41.6579 62.3323C37.2932 100.745 64.8946 135.423 103.307 139.788C141.72 144.153 176.398 116.551 180.763 78.1384Z" fill="#D1DDE8"/>
<path d="M70.6682 109.801L54.1594 81.1653L26.9648 98.1544L43.8339 127.45C44.1941 128.17 44.6743 128.891 45.2146 129.491C49.8371 134.954 59.1421 134.714 65.9257 128.951C72.2291 123.608 74.1501 115.384 70.6682 109.801Z" fill="#235196"/>
<path d="M60.5228 118.145C62.0836 116.824 63.3443 115.323 64.4248 113.762C64.3648 113.642 64.3048 113.462 64.1847 113.342L57.7613 102.236C56.8008 103.557 55.6602 104.818 54.2794 105.958C46.8955 112.202 36.8701 112.502 31.8274 106.619L39.7516 120.426C45.1545 124.568 53.9192 123.728 60.5228 118.145Z" fill="#4DD0E1"/>
<path d="M54.9398 132.733C54.3395 132.013 53.7992 131.232 53.379 130.392L34.1087 96.8337L55.4801 83.4465L54.1594 81.1653L26.9648 98.1544L43.8339 127.45C44.1941 128.17 44.6743 128.891 45.2146 129.491C47.6759 132.433 51.518 133.693 55.5401 133.393C55.36 133.153 55.1199 132.973 54.9398 132.733Z" fill="url(#paint0_linear_343_6923)"/>
<path d="M49.2749 100.109C56.0682 94.3301 57.8139 85.2238 53.174 79.7689C48.5341 74.314 39.2656 74.5763 32.4723 80.3547C25.679 86.1331 23.9333 95.2394 28.5732 100.694C33.2131 106.149 42.4815 105.887 49.2749 100.109Z" fill="#235196"/>
<path d="M48.5165 99.235C42.3332 104.458 33.9287 104.698 29.7265 99.7753C25.5242 94.7926 27.0851 86.5682 33.2684 81.3454C39.4517 76.1226 47.8562 75.8825 52.0584 80.8052C56.2607 85.7278 54.6398 94.0122 48.5165 99.235Z" fill="url(#paint1_linear_343_6923)"/>
<mask id="mask0_343_6923" style="mask-type:luminance" maskUnits="userSpaceOnUse" x="27" y="77" width="28" height="27">
<path d="M48.4976 99.1936C54.6597 93.9522 56.2419 85.6904 52.0315 80.7406C47.8211 75.7907 39.4126 76.027 33.2505 81.2685C27.0884 86.51 25.5062 94.7717 29.7166 99.7216C33.9269 104.671 42.3355 104.435 48.4976 99.1936Z" fill="white"/>
</mask>
<g mask="url(#mask0_343_6923)">
<path d="M58.3018 96.593V93.8916H57.7015C56.6809 91.9105 54.5798 90.5298 52.2386 90.5298C49.8373 90.5298 47.7962 91.9706 46.8357 94.0117H46.2354V96.7131C46.2954 100.075 48.9968 102.776 52.3586 102.716C55.6604 102.716 58.3618 99.9548 58.3018 96.593Z" fill="#D1DDE8"/>
<path d="M56.5187 98.2878C58.8865 95.92 58.8865 92.081 56.5187 89.7132C54.1509 87.3453 50.3119 87.3453 47.9441 89.7132C45.5762 92.081 45.5762 95.92 47.9441 98.2878C50.3119 100.656 54.1509 100.656 56.5187 98.2878Z" fill="#E7EDF4"/>
<path d="M46.2952 92.6914C46.1752 93.1116 46.1151 93.5918 46.1752 94.0721C46.1752 94.5523 46.2352 94.9726 46.3553 95.4528L58.1816 95.3328C58.3017 94.9125 58.3617 94.4323 58.3017 93.952C58.3017 93.4718 58.2416 93.0515 58.1216 92.5713L46.2952 92.6914Z" fill="white"/>
</g>
<mask id="mask1_343_6923" style="mask-type:luminance" maskUnits="userSpaceOnUse" x="27" y="77" width="28" height="27">
<path d="M48.4976 99.1936C54.6597 93.9522 56.2419 85.6904 52.0315 80.7406C47.8211 75.7907 39.4126 76.027 33.2505 81.2685C27.0884 86.51 25.5062 94.7717 29.7166 99.7216C33.9269 104.671 42.3355 104.435 48.4976 99.1936Z" fill="white"/>
</mask>
<g mask="url(#mask1_343_6923)">
<path d="M48.336 84.2874L45.8747 83.2068L45.6346 83.8071C43.4134 83.9272 41.3123 85.2479 40.3518 87.4691C39.3913 89.6903 39.8715 92.0915 41.3123 93.8325L41.0722 94.4328L43.5335 95.5134C46.5951 96.8341 50.197 95.4533 51.5177 92.3317C52.8385 89.21 51.4577 85.6081 48.336 84.2874Z" fill="#D1DDE8"/>
<path d="M49.0565 91.191C47.7358 94.2526 44.1339 95.6934 41.0722 94.3727C38.0106 93.0519 36.5698 89.45 37.8905 86.3884C39.2112 83.3267 42.8131 81.886 45.8748 83.2067C48.9965 84.5274 50.3772 88.1293 49.0565 91.191Z" fill="#E7EDF4"/>
<path d="M39.8713 93.6522C40.2315 93.8923 40.6518 94.1324 41.072 94.3726C41.4922 94.5527 41.9725 94.6727 42.3927 94.7928L47.0752 83.927C46.715 83.6869 46.2948 83.4467 45.8746 83.2066C45.4543 83.0265 44.9741 82.9064 44.5538 82.7864L39.8713 93.6522Z" fill="white"/>
</g>
<mask id="mask2_343_6923" style="mask-type:luminance" maskUnits="userSpaceOnUse" x="27" y="77" width="28" height="27">
<path d="M48.4976 99.1936C54.6597 93.9522 56.2419 85.6904 52.0315 80.7406C47.8211 75.7907 39.4126 76.027 33.2505 81.2685C27.0884 86.51 25.5062 94.7717 29.7166 99.7216C33.9269 104.671 42.3355 104.435 48.4976 99.1936Z" fill="white"/>
</mask>
<g mask="url(#mask2_343_6923)">
<path d="M43.3534 101.456L42.7531 98.8746L42.1528 98.9947C40.712 97.2538 38.3707 96.4133 36.0295 96.9536C33.6882 97.4939 32.0073 99.3549 31.5271 101.516L30.9268 101.636L31.5271 104.218C32.3075 107.459 35.6093 109.5 38.851 108.72C42.1528 108 44.1338 104.758 43.3534 101.456Z" fill="#D1DDE8"/>
<path d="M37.9429 106.22C41.2329 105.596 43.3937 102.422 42.7692 99.1323C42.1447 95.8423 38.9713 93.6815 35.6813 94.306C32.3912 94.9305 30.2304 98.1039 30.8549 101.394C31.4794 104.684 34.6528 106.845 37.9429 106.22Z" fill="#E7EDF4"/>
<path d="M30.7468 100.315C30.7468 100.796 30.8069 101.216 30.9269 101.696C31.047 102.176 31.2271 102.597 31.4072 103.017L42.9334 100.255C42.9334 99.7751 42.8733 99.3549 42.7533 98.8747C42.6332 98.3944 42.4531 97.9742 42.273 97.554L30.7468 100.315Z" fill="white"/>
</g>
<path d="M54.2194 71.56L53.6191 68.9786L53.0187 69.0987C51.578 67.3578 49.2367 66.5173 46.8955 67.0576C44.5542 67.5979 42.8733 69.4589 42.393 71.6201L41.7927 71.7401L42.393 74.3215C43.1735 77.5632 46.4752 79.6043 49.717 78.8239C52.9587 78.1035 54.9398 74.8018 54.2194 71.56Z" fill="#D1DDE8"/>
<path d="M49.0565 76.2423C45.8148 77.0227 42.513 74.9816 41.7326 71.7399C40.9522 68.4982 42.9933 65.1964 46.235 64.416C49.4768 63.6356 52.7785 65.6766 53.559 68.9184C54.3394 72.2202 52.3583 75.4619 49.0565 76.2423Z" fill="#E7EDF4"/>
<path d="M41.6125 70.3594C41.6125 70.8396 41.6726 71.2599 41.7926 71.7401C41.9127 72.2204 42.0928 72.6406 42.2729 73.0608L53.7991 70.2993C53.7991 69.8191 53.739 69.3989 53.619 68.9186C53.4989 68.4383 53.3188 68.0181 53.1387 67.5979L41.6125 70.3594Z" fill="white"/>
<path d="M39.5116 50.5486L38.9113 47.9672L38.311 48.0872C36.8702 46.3463 34.5289 45.5059 32.1877 46.0461C29.8464 46.5864 28.1655 48.4474 27.6853 50.6086L27.085 50.7287L27.6853 53.31C28.4657 56.5518 31.7675 58.5929 35.0092 57.8124C38.2509 57.0921 40.292 53.7903 39.5116 50.5486Z" fill="#D1DDE8"/>
<path d="M34.3488 55.2311C31.107 56.0115 27.8053 53.9704 27.0249 50.7287C26.2444 47.4869 28.2855 44.1852 31.5273 43.4047C34.769 42.6243 38.0708 44.6654 38.8512 47.9072C39.6316 51.2089 37.6505 54.4507 34.3488 55.2311Z" fill="#E7EDF4"/>
<path d="M26.905 49.3479C26.905 49.8282 26.9651 50.2484 27.0851 50.7286C27.2052 51.2089 27.3853 51.6291 27.5654 52.0494L39.0916 49.2879C39.0916 48.8076 39.0315 48.3874 38.9115 47.9071C38.7914 47.4269 38.6113 47.0067 38.4312 46.5864L26.905 49.3479Z" fill="white"/>
<path d="M29.5463 65.0763L27.025 62.4348L26.3646 63.2153C20.1813 60.874 12.197 63.8756 7.33444 70.7793C3.49238 76.2422 2.65193 82.7857 4.57296 87.7084L3.85257 88.4888L7.57457 92.2108C7.93476 92.571 8.35498 92.8711 8.77521 93.1713C15.1386 97.6137 24.8038 94.8522 30.3868 86.928C35.7296 79.3639 35.4295 71.1995 29.5463 65.0763Z" fill="#D1DDE8"/>
<path d="M14.4781 95.3324C13.9979 95.2723 13.5176 95.2123 12.9773 95.0922L3.79239 84.9468L1.9314 82.9057L2.59175 82.2454L3.6123 83.3259L14.4781 95.3324Z" fill="#E7EDF4"/>
<path d="M18.2003 95.1523C17.8401 95.2123 17.4199 95.2723 17.0597 95.3324L5.77368 82.9057L6.43404 82.2454L18.2003 95.1523Z" fill="#E7EDF4"/>
<path d="M21.3218 94.2518C21.0216 94.3719 20.6614 94.4919 20.3613 94.612L9.67554 82.9057L10.3359 82.2454L21.3218 94.2518Z" fill="#E7EDF4"/>
<path d="M24.0232 92.9911C23.7231 93.1712 23.4829 93.2913 23.1828 93.4714L13.5776 82.9057L14.298 82.2454L24.0232 92.9911Z" fill="#E7EDF4"/>
<path d="M26.3645 91.3107C26.1244 91.4908 25.8842 91.6709 25.6441 91.851L17.4797 82.8461L18.2001 82.1858L26.3645 91.3107Z" fill="#E7EDF4"/>
<path d="M28.4656 89.3296C28.2255 89.5697 28.0454 89.7498 27.8052 89.99L21.3218 82.8461L22.0422 82.1858L28.4656 89.3296Z" fill="#E7EDF4"/>
<path d="M30.3268 87.048C30.1467 87.2881 29.9666 87.5883 29.7865 87.8284L21.8022 79.1237L22.4626 78.4634L30.3268 87.048Z" fill="#E7EDF4"/>
<path d="M31.9477 84.407C31.8276 84.7072 31.6475 85.0073 31.4674 85.2475L21.8022 74.6218L22.4626 73.9614L31.9477 84.407Z" fill="#E7EDF4"/>
<path d="M33.2684 81.4652C33.1483 81.7654 33.0283 82.1256 32.9082 82.4258L21.8623 70.2993L22.5227 69.6389L33.2684 81.4652Z" fill="#E7EDF4"/>
<path d="M34.1089 77.9231C34.0488 78.3434 33.9888 78.7035 33.9288 79.1238L21.8623 65.9167L22.5227 65.2563L34.1089 77.9231Z" fill="#E7EDF4"/>
<path d="M34.1689 74.9816L22.7628 62.4949L21.8623 61.4743L22.5227 60.814L24.1435 62.6149L33.9288 73.4207C34.0488 73.901 34.1089 74.4413 34.1689 74.9816Z" fill="#E7EDF4"/>
<path d="M26.9585 83.5744C32.5233 75.6523 31.8659 65.5996 25.4902 61.1211C19.1145 56.6426 9.43484 59.4342 3.87008 67.3564C-1.69468 75.2785 -1.0373 85.3312 5.3384 89.8097C11.7141 94.2882 21.3937 91.4966 26.9585 83.5744Z" fill="#E7EDF4"/>
<path d="M18.2602 61.1145C20.4814 61.1145 22.5225 61.7748 24.2634 62.9755C29.7864 66.8776 30.3267 75.6423 25.4641 82.546C22.2824 87.1084 17.3597 89.9299 12.6172 89.9299C10.396 89.9299 8.3549 89.2696 6.61397 88.0689C1.09101 84.1668 0.550722 75.4021 5.41333 68.4984C8.59503 63.936 13.5177 61.1145 18.2602 61.1145ZM18.2602 60.5142C13.5177 60.5142 8.3549 63.2756 4.93307 68.1382C-0.109631 75.3421 0.49069 84.527 6.25378 88.5492C8.11477 89.8699 10.336 90.4702 12.6172 90.4702C17.3597 90.4702 22.5225 87.7087 25.9443 82.8461C30.987 75.6423 30.3867 66.4573 24.6236 62.4352C22.7026 61.1145 20.5414 60.5142 18.2602 60.5142Z" fill="white"/>
<path d="M157.054 151.343L73.1896 137.055C71.0284 136.695 69.4676 134.714 69.6477 132.492L80.2734 12.9685C80.4535 10.7473 82.3145 9.06641 84.5357 9.06641L169.601 9.78679C172.063 9.78679 174.044 11.9479 173.803 14.4093L161.977 147.561C161.797 149.962 159.516 151.763 157.054 151.343Z" fill="#4DD0E1"/>
<path d="M156.634 147.08L74.2703 133.033L84.4157 19.332L167.92 20.0524L156.634 147.08Z" fill="#E7EDF4"/>
<path d="M156.634 147.08L74.2703 133.033L84.4157 19.332L167.92 20.0524L156.634 147.08Z" fill="url(#paint2_linear_343_6923)"/>
<path d="M167.92 20.0524L84.3555 19.332C84.3555 19.332 73.2496 112.922 66.1658 118.925L149.61 137.115L167.92 20.0524Z" fill="white"/>
<path d="M66.226 118.925C66.226 118.925 57.041 114.483 57.8815 101.936L132.321 119.405C132.321 119.405 147.69 149.782 150.871 129.491L149.671 137.175L66.226 118.925Z" fill="#E7EDF4"/>
<path d="M112.394 17.0714C113.531 16.837 114.262 15.7256 114.027 14.5891C113.793 13.4526 112.682 12.7213 111.545 12.9557C110.409 13.1901 109.677 14.3015 109.912 15.438C110.146 16.5745 111.257 17.3058 112.394 17.0714Z" fill="#235196"/>
<path d="M142.386 17.0521C143.519 16.7986 144.231 15.6751 143.977 14.5427C143.724 13.4104 142.6 12.698 141.468 12.9515C140.336 13.2051 139.623 14.3286 139.877 15.4609C140.13 16.5933 141.254 17.3057 142.386 17.0521Z" fill="#235196"/>
<path d="M111.971 15.0095L111.31 22.4535C111.19 23.6541 112.151 24.6747 113.351 24.6747H123.317L123.377 24.3145C123.497 23.2339 124.397 22.3935 125.478 22.3334H126.438C127.699 22.3334 128.659 23.414 128.599 24.6146H139.225C140.306 24.6146 141.146 23.8342 141.266 22.7536L141.987 14.9495" stroke="#235196" stroke-width="3" stroke-miterlimit="10" stroke-linejoin="round"/>
<path d="M95.5215 38.062L148.41 39.4428" stroke="#E7EDF4" stroke-width="3" stroke-miterlimit="10" stroke-linecap="round"/>
<path d="M94.8015 45.9861L147.69 47.4269" stroke="#E7EDF4" stroke-width="3" stroke-miterlimit="10" stroke-linecap="round"/>
<path d="M93.4805 53.9106L146.369 55.2914" stroke="#E7EDF4" stroke-width="3" stroke-miterlimit="10" stroke-linecap="round"/>
<path d="M92.1599 61.7742L145.108 63.1549" stroke="#E7EDF4" stroke-width="3" stroke-miterlimit="10" stroke-linecap="round"/>
<path d="M90.8992 69.6987L143.787 71.0795" stroke="#E7EDF4" stroke-width="3" stroke-miterlimit="10" stroke-linecap="round"/>
<path d="M116.473 89.4497C116.053 94.0722 112.031 97.434 107.408 97.0137C102.786 96.5935 99.4238 92.5714 99.8441 87.9489C100.264 83.3264 104.286 79.9646 108.909 80.3848C113.471 80.8051 116.893 84.8872 116.473 89.4497Z" fill="#E7EDF4"/>
<path d="M92.7004 93.9519C90.3591 91.1304 89.3386 87.2283 89.8788 83.6264C89.9989 82.7259 90.3591 81.7054 91.1995 81.4652C92.4602 81.1051 93.3607 82.6659 93.7809 83.9266C94.3212 85.5474 94.8015 87.1683 95.3418 88.7892C95.4618 89.0893 95.5819 89.4495 95.822 89.5696C97.0827 90.35 97.683 86.688 99.1238 87.2283C99.9042 87.5285 99.6641 88.7291 100.084 89.3895C100.625 90.1699 101.765 90.0498 102.606 89.5696C103.446 89.1494 104.166 88.429 105.067 88.3689C105.967 88.2489 106.808 88.7892 107.708 88.6691C109.269 88.489 110.47 86.628 111.971 87.0482" stroke="#D1DDE8" stroke-width="3" stroke-miterlimit="10" stroke-linecap="round"/>
<path d="M107.528 139.456L94.5611 134.473C92.2199 133.573 89.5785 134.714 88.6179 137.115C87.7175 139.456 88.8581 142.097 91.2594 143.058L104.226 148.041C106.568 148.941 109.209 147.801 110.169 145.399C111.07 142.998 109.929 140.357 107.528 139.456Z" fill="white"/>
<path d="M107.528 139.456L101.045 136.935L97.7429 145.459L104.226 147.98C106.568 148.881 109.209 147.74 110.17 145.339C111.07 142.998 109.929 140.356 107.528 139.456Z" fill="#235196"/>
<path d="M107.408 145.459L90.5989 138.976C89.6984 138.615 89.0381 138.075 88.4978 137.355C87.7774 139.636 88.978 142.097 91.1992 142.998L104.166 147.98C106.447 148.881 108.969 147.8 109.989 145.639C109.209 145.819 108.308 145.759 107.408 145.459Z" fill="url(#paint3_linear_343_6923)"/>
<path d="M126.918 123.427L113.531 127.21C111.07 127.87 109.689 130.451 110.35 132.853C111.01 135.314 113.591 136.695 115.993 136.034L129.38 132.252C131.841 131.592 133.222 129.01 132.562 126.609C131.901 124.148 129.38 122.767 126.918 123.427Z" fill="white"/>
<path d="M126.918 123.428L120.195 125.349L122.656 134.173L129.38 132.252C131.841 131.592 133.222 129.011 132.561 126.609C131.901 124.148 129.38 122.767 126.918 123.428Z" fill="#235196"/>
<path d="M130.4 128.291L113.111 133.213C112.211 133.453 111.31 133.453 110.47 133.153C111.25 135.434 113.711 136.695 116.053 136.035L129.44 132.253C131.781 131.592 133.162 129.251 132.682 126.91C132.081 127.57 131.301 128.051 130.4 128.291Z" fill="url(#paint4_linear_343_6923)"/>
<path d="M57.8816 19.572H53.2591V15.0095H48.0964V19.572H43.4739V24.7347H48.0964V29.3572H53.2591V24.7347H57.8816V19.572Z" fill="#4DD0E1"/>
<path d="M70.9686 38.1224H67.8469V35.0007H64.3651V38.1224H61.1833V41.6043H64.3651V44.7259H67.8469V41.6043H70.9686V38.1224Z" fill="#235196"/>
<path d="M27.1452 122.467C27.1452 124.628 25.4043 126.429 23.1831 126.429C20.9619 126.429 19.2209 124.688 19.2209 122.467C19.2209 120.306 20.9619 118.505 23.1831 118.505C25.4043 118.505 27.1452 120.306 27.1452 122.467Z" fill="#4DD0E1"/>
<path d="M16.8194 115.623C16.8194 116.764 15.8589 117.724 14.7183 117.724C13.5777 117.724 12.6172 116.764 12.6172 115.623C12.6172 114.483 13.5777 113.522 14.7183 113.522C15.8589 113.522 16.8194 114.423 16.8194 115.623Z" fill="#4DD0E1"/>
</g>
<defs>
<linearGradient id="paint0_linear_343_6923" x1="75.2218" y1="116.72" x2="13.307" y2="90.6164" gradientUnits="userSpaceOnUse">
<stop offset="0.00195313" stop-color="white" stop-opacity="0"/>
<stop offset="1" stop-color="#235196"/>
</linearGradient>
<linearGradient id="paint1_linear_343_6923" x1="16.2819" y1="67.8602" x2="54.6819" y2="102.808" gradientUnits="userSpaceOnUse">
<stop offset="0.00195313" stop-color="white" stop-opacity="0"/>
<stop offset="1" stop-color="#235196"/>
</linearGradient>
<linearGradient id="paint2_linear_343_6923" x1="149.472" y1="82.433" x2="-3.01018" y2="68.8549" gradientUnits="userSpaceOnUse">
<stop offset="0.00195313" stop-color="white" stop-opacity="0"/>
<stop offset="1" stop-color="#235196"/>
</linearGradient>
<linearGradient id="paint3_linear_343_6923" x1="96.7641" y1="128.565" x2="101.578" y2="155.908" gradientUnits="userSpaceOnUse">
<stop offset="0.00195313" stop-color="white" stop-opacity="0"/>
<stop offset="1" stop-color="#235196"/>
</linearGradient>
<linearGradient id="paint4_linear_343_6923" x1="111.784" y1="121.192" x2="132.03" y2="140.192" gradientUnits="userSpaceOnUse">
<stop offset="0.00195313" stop-color="white" stop-opacity="0"/>
<stop offset="1" stop-color="#235196"/>
</linearGradient>
<clipPath id="clip0_343_6923">
<rect width="182" height="152" fill="white"/>
</clipPath>
</defs>
</svg>
